<svg width="36" height="36" viewBox="0 0 36 36" fill="none" xmlns="http://www.w3.org/2000/svg">
<path fill-rule="evenodd" clip-rule="evenodd" d="M18 0C8.064 0 0 8.064 0 18C0 27.936 8.064 36 18 36C27.936 36 36 27.936 36 18C36 8.064 27.936 0 18 0ZM29.448 26.694C26.874 23.562 20.628 22.5 18 22.5C15.372 22.5 9.126 23.562 6.552 26.694C4.716 24.282 3.6 21.276 3.6 18C3.6 10.062 10.062 3.6 18 3.6C25.938 3.6 32.4 10.062 32.4 18C32.4 21.276 31.284 24.282 29.448 26.694ZM11.7 13.5C11.7 10.008 14.508 7.2 18 7.2C21.492 7.2 24.3 10.008 24.3 13.5C24.3 16.992 21.492 19.8 18 19.8C14.508 19.8 11.7 16.992 11.7 13.5Z" fill="#CAC4D0"/>
</svg>
